<?xml version="1.0" encoding="UTF-8"?>
<!DOCTYPE svg PUBLIC "-//W3C//DTD SVG 1.1//EN" "http://www.w3.org/Graphics/SVG/1.1/DTD/svg11.dtd">
<svg xmlns="http://www.w3.org/2000/svg" version="1.1" width="2138px" height="725px" style="shape-rendering:geometricPrecision; text-rendering:geometricPrecision; image-rendering:optimizeQuality; fill-rule:evenodd; clip-rule:evenodd" xmlns:xlink="http://www.w3.org/1999/xlink">
<g><path style="opacity:1" fill="#be3e26" d="M -0.5,-0.5 C -0.166667,-0.5 0.166667,-0.5 0.5,-0.5C 46.4382,44.2704 92.2716,89.2704 138,134.5C 138.5,144.494 138.666,154.494 138.5,164.5C 92.1667,164.5 45.8333,164.5 -0.5,164.5C -0.5,109.5 -0.5,54.5 -0.5,-0.5 Z"/></g>
<g><path style="opacity:1" fill="#b83b25" d="M -0.5,164.5 C 45.8333,164.5 92.1667,164.5 138.5,164.5C 138.5,179.167 138.5,193.833 138.5,208.5C 92.1667,208.5 45.8333,208.5 -0.5,208.5C -0.5,193.833 -0.5,179.167 -0.5,164.5 Z"/></g>
<g><path style="opacity:1" fill="#b23922" d="M -0.5,208.5 C 45.8333,208.5 92.1667,208.5 138.5,208.5C 138.5,219.5 138.5,230.5 138.5,241.5C 92.1667,241.5 45.8333,241.5 -0.5,241.5C -0.5,230.5 -0.5,219.5 -0.5,208.5 Z"/></g>
<g><path style="opacity:0.032" fill="#fefefe" d="M 338.5,326.5 C 307.063,296.564 276.063,266.064 245.5,235C 242.696,234.613 240.696,235.779 239.5,238.5C 235.793,240.688 232.46,243.355 229.5,246.5C 227.091,247.701 225.091,249.367 223.5,251.5C 220.891,252.443 218.891,254.11 217.5,256.5C 215.091,257.701 213.091,259.367 211.5,261.5C 210.128,262.512 208.795,263.512 207.5,264.5C 205.475,266.196 203.475,267.863 201.5,269.5C 200.167,270.167 199.167,271.167 198.5,272.5C 195.19,274.482 192.19,276.815 189.5,279.5C 187.5,281.167 185.5,282.833 183.5,284.5C 181.427,286.58 179.093,288.246 176.5,289.5C 201.898,266.269 228.065,243.935 255,222.5C 280.577,251.761 305.911,281.427 331,311.5C 334.887,315.387 338.721,319.221 342.5,323C 341.295,324.376 339.962,325.542 338.5,326.5 Z"/></g>
<g><path style="opacity:0.999" fill="#f18454" d="M 338.5,326.5 C 341.5,329.833 344.5,333.167 347.5,336.5C 346.833,336.5 346.167,336.5 345.5,336.5C 342.871,333.369 340.038,330.369 337,327.5C 333.667,330.002 330.501,332.668 327.5,335.5C 326.5,336.167 325.5,336.833 324.5,337.5C 295.515,305.292 267.181,272.292 239.5,238.5C 240.696,235.779 242.696,234.613 245.5,235C 276.063,266.064 307.063,296.564 338.5,326.5 Z"/></g>
<g><path style="opacity:1" fill="#ab3720" d="M -0.5,241.5 C 45.8333,241.5 92.1667,241.5 138.5,241.5C 138.5,247.833 138.5,254.167 138.5,260.5C 92.1667,260.5 45.8333,260.5 -0.5,260.5C -0.5,254.167 -0.5,247.833 -0.5,241.5 Z"/></g>
<g><path style="opacity:1" fill="#f38d5e" d="M 239.5,238.5 C 267.181,272.292 295.515,305.292 324.5,337.5C 323.833,338.833 322.833,339.833 321.5,340.5C 319.098,342.909 316.431,344.909 313.5,346.5C 287.906,316.397 262.072,286.397 236,256.5C 233.19,253.536 231.024,250.202 229.5,246.5C 232.46,243.355 235.793,240.688 239.5,238.5 Z"/></g>
<g><path style="opacity:1" fill="#f49466" d="M 229.5,246.5 C 231.024,250.202 233.19,253.536 236,256.5C 262.072,286.397 287.906,316.397 313.5,346.5C 313.5,346.833 313.5,347.167 313.5,347.5C 311.754,349.252 309.754,350.585 307.5,351.5C 281.234,320.638 254.734,289.971 228,259.5C 227.047,257.545 225.713,255.878 224,254.5C 223.517,253.552 223.351,252.552 223.5,251.5C 225.091,249.367 227.091,247.701 229.5,246.5 Z"/></g>
<g><path style="opacity:1" fill="#f5996d" d="M 223.5,251.5 C 223.351,252.552 223.517,253.552 224,254.5C 225.713,255.878 227.047,257.545 228,259.5C 254.734,289.971 281.234,320.638 307.5,351.5C 306.5,352.833 305.5,354.167 304.5,355.5C 303.5,356.167 302.5,356.833 301.5,357.5C 300.56,355.388 299.394,353.388 298,351.5C 270.684,320.173 243.851,288.507 217.5,256.5C 218.891,254.11 220.891,252.443 223.5,251.5 Z"/></g>
<g><path style="opacity:1" fill="#f59e73" d="M 217.5,256.5 C 243.851,288.507 270.684,320.173 298,351.5C 299.394,353.388 300.56,355.388 301.5,357.5C 299.833,358.833 298.167,360.167 296.5,361.5C 293.497,357.657 290.664,353.657 288,349.5C 261.772,320.464 236.272,291.131 211.5,261.5C 213.091,259.367 215.091,257.701 217.5,256.5 Z"/></g>
<g><path style="opacity:1" fill="#a5341e" d="M -0.5,260.5 C 45.8333,260.5 92.1667,260.5 138.5,260.5C 138.5,266.167 138.5,271.833 138.5,277.5C 92.1667,277.5 45.8333,277.5 -0.5,277.5C -0.5,271.833 -0.5,266.167 -0.5,260.5 Z"/></g>
<g><path style="opacity:1" fill="#f6a37a" d="M 211.5,261.5 C 236.272,291.131 261.772,320.464 288,349.5C 290.664,353.657 293.497,357.657 296.5,361.5C 296.5,361.833 296.5,362.167 296.5,362.5C 294.589,363.075 292.922,364.075 291.5,365.5C 268.501,338.332 245.668,310.999 223,283.5C 216.454,278.138 211.288,271.805 207.5,264.5C 208.795,263.512 210.128,262.512 211.5,261.5 Z"/></g>
<g><path style="opacity:1" fill="#f7a77f" d="M 207.5,264.5 C 211.288,271.805 216.454,278.138 223,283.5C 245.668,310.999 268.501,338.332 291.5,365.5C 290.109,367.89 288.109,369.557 285.5,370.5C 285.649,369.448 285.483,368.448 285,367.5C 256.898,334.911 229.064,302.244 201.5,269.5C 203.475,267.863 205.475,266.196 207.5,264.5 Z"/></g>
<g><path style="opacity:1" fill="#f7ac86" d="M 201.5,269.5 C 229.064,302.244 256.898,334.911 285,367.5C 285.483,368.448 285.649,369.448 285.5,370.5C 285.167,371.167 284.833,371.833 284.5,372.5C 283.5,373.167 282.5,373.833 281.5,374.5C 255.297,341.952 228.297,309.952 200.5,278.5C 198.914,276.827 198.247,274.827 198.5,272.5C 199.167,271.167 200.167,270.167 201.5,269.5 Z"/></g>
<g><path style="opacity:1" fill="#9f321c" d="M -0.5,277.5 C 45.8333,277.5 92.1667,277.5 138.5,277.5C 138.5,282.167 138.5,286.833 138.5,291.5C 92.1667,291.5 45.8333,291.5 -0.5,291.5C -0.5,286.833 -0.5,282.167 -0.5,277.5 Z"/></g>
<g><path style="opacity:1" fill="#f7b38f" d="M 198.5,272.5 C 198.247,274.827 198.914,276.827 200.5,278.5C 228.297,309.952 255.297,341.952 281.5,374.5C 279.527,375.806 277.861,377.473 276.5,379.5C 275.167,380.167 274.167,381.167 273.5,382.5C 273.167,382.5 272.833,382.5 272.5,382.5C 268.283,376.104 263.449,370.104 258,364.5C 257.667,363.167 257.333,361.833 257,360.5C 236.22,335.17 214.886,310.503 193,286.5C 191.295,284.423 190.128,282.09 189.5,279.5C 192.19,276.815 195.19,274.482 198.5,272.5 Z"/></g>
<g><path style="opacity:1" fill="#f9ba98" d="M 189.5,279.5 C 190.128,282.09 191.295,284.423 193,286.5C 214.886,310.503 236.22,335.17 257,360.5C 257.333,361.833 257.667,363.167 258,364.5C 263.449,370.104 268.283,376.104 272.5,382.5C 272.5,382.833 272.5,383.167 272.5,383.5C 271.5,384.167 270.5,384.833 269.5,385.5C 240.619,352.109 211.952,318.442 183.5,284.5C 185.5,282.833 187.5,281.167 189.5,279.5 Z"/></g>
<g><path style="opacity:1" fill="#fac2a3" d="M 183.5,284.5 C 211.952,318.442 240.619,352.109 269.5,385.5C 266.874,387.823 264.207,390.157 261.5,392.5C 242.859,369.694 223.692,347.361 204,325.5C 197.121,316.382 189.788,307.715 182,299.5C 179.865,296.233 178.031,292.899 176.5,289.5C 179.093,288.246 181.427,286.58 183.5,284.5 Z"/></g>
<g><path style="opacity:1" fill="#982f19" d="M -0.5,291.5 C 45.8333,291.5 92.1667,291.5 138.5,291.5C 138.5,296.5 138.5,301.5 138.5,306.5C 92.1667,306.5 45.8333,306.5 -0.5,306.5C -0.5,301.5 -0.5,296.5 -0.5,291.5 Z"/></g>
<g><path style="opacity:1" fill="#facbb0" d="M 176.5,289.5 C 178.031,292.899 179.865,296.233 182,299.5C 189.788,307.715 197.121,316.382 204,325.5C 223.692,347.361 242.859,369.694 261.5,392.5C 258.792,395.209 255.792,397.542 252.5,399.5C 252.649,398.448 252.483,397.448 252,396.5C 223.515,363.865 195.681,330.865 168.5,297.5C 169.193,296.482 169.859,295.482 170.5,294.5C 171.911,292.086 173.911,290.419 176.5,289.5 Z"/></g>
<g><path style="opacity:1" fill="#fbd3bc" d="M 170.5,294.5 C 169.859,295.482 169.193,296.482 168.5,297.5C 195.681,330.865 223.515,363.865 252,396.5C 252.483,397.448 252.649,398.448 252.5,399.5C 250.761,402.243 248.427,404.243 245.5,405.5C 217.401,371.559 189.067,337.726 160.5,304C 161.71,302.961 162.71,301.794 163.5,300.5C 165.239,297.757 167.573,295.757 170.5,294.5 Z"/></g>
<g><path style="opacity:1" fill="#fcd9c4" d="M 163.5,300.5 C 162.71,301.794 161.71,302.961 160.5,304C 189.067,337.726 217.401,371.559 245.5,405.5C 244.5,407.167 243.167,408.5 241.5,409.5C 239.914,410.413 238.414,410.413 237,409.5C 229.667,400.167 222.333,390.833 215,381.5C 193.529,357.875 172.695,333.875 152.5,309.5C 155.871,306.129 159.537,303.129 163.5,300.5 Z"/></g>
<g><path style="opacity:0.998" fill="#fbd2ba" d="M 152.5,309.5 C 172.695,333.875 193.529,357.875 215,381.5C 222.333,390.833 229.667,400.167 237,409.5C 238.414,410.413 239.914,410.413 241.5,409.5C 239.192,411.471 236.858,413.471 234.5,415.5C 232.097,415.607 230.264,414.607 229,412.5C 203.347,381.182 177.347,350.182 151,319.5C 149.549,317.536 147.716,316.203 145.5,315.5C 147.607,313.273 149.94,311.273 152.5,309.5 Z"/></g>
<g><path style="opacity:1" fill="#8e2b15" d="M -0.5,306.5 C 45.8333,306.5 92.1667,306.5 138.5,306.5C 138.5,311.167 138.5,315.833 138.5,320.5C 137.7,322.573 136.367,324.24 134.5,325.5C 133.167,326.5 131.833,327.5 130.5,328.5C 87.0032,327.501 43.3365,327.168 -0.5,327.5C -0.5,320.5 -0.5,313.5 -0.5,306.5 Z"/></g>
<g><path style="opacity:1" fill="#fac9ad" d="M 145.5,315.5 C 147.716,316.203 149.549,317.536 151,319.5C 177.347,350.182 203.347,381.182 229,412.5C 230.264,414.607 232.097,415.607 234.5,415.5C 231.859,417.804 229.192,420.138 226.5,422.5C 199.109,389 171.276,356 143,323.5C 141.991,321.975 141.491,320.308 141.5,318.5C 142.833,317.5 144.167,316.5 145.5,315.5 Z"/></g>
<g><path style="opacity:1" fill="#f9c1a1" d="M 141.5,318.5 C 141.491,320.308 141.991,321.975 143,323.5C 171.276,356 199.109,389 226.5,422.5C 224.192,424.471 221.858,426.471 219.5,428.5C 219.657,427.127 219.49,425.793 219,424.5C 190.351,391.841 162.185,358.841 134.5,325.5C 136.367,324.24 137.7,322.573 138.5,320.5C 139.5,319.833 140.5,319.167 141.5,318.5 Z"/></g>
<g><path style="opacity:0.999" fill="#f8b794" d="M 134.5,325.5 C 162.185,358.841 190.351,391.841 219,424.5C 219.49,425.793 219.657,427.127 219.5,428.5C 217.098,430.909 214.431,432.909 211.5,434.5C 211.649,433.448 211.483,432.448 211,431.5C 184.763,401.353 158.763,371.02 133,340.5C 130.517,337.861 128.684,334.861 127.5,331.5C 128.167,330.167 129.167,329.167 130.5,328.5C 131.833,327.5 133.167,326.5 134.5,325.5 Z"/></g>
<g><path style="opacity:1" fill="#1b0000" d="M 345.5,336.5 C 339.31,336.823 333.31,336.49 327.5,335.5C 330.501,332.668 333.667,330.002 337,327.5C 340.038,330.369 342.871,333.369 345.5,336.5 Z"/></g>
<g><path style="opacity:0.974" fill="#000000" d="M 824.5,333.5 C 861.729,329.019 885.562,344.685 896,380.5C 898.419,388.683 900.086,397.016 901,405.5C 903.482,433.919 902.815,462.253 899,490.5C 890.204,540.649 861.038,559.815 811.5,548C 797.333,541.833 787.167,531.667 781,517.5C 775.627,504.34 772.293,490.673 771,476.5C 768.495,449.076 769.162,421.742 773,394.5C 775.927,374.475 784.761,357.642 799.5,344C 807.237,338.79 815.571,335.29 824.5,333.5 Z M 829.5,362.5 C 841.02,360.611 850.186,364.278 857,373.5C 860.317,379.117 862.65,385.117 864,391.5C 870.439,427.644 869.772,463.644 862,499.5C 858.37,513.136 849.703,521.136 836,523.5C 823.957,521.796 815.957,515.13 812,503.5C 806.738,487.26 804.071,470.593 804,453.5C 802.889,431.609 804.556,409.942 809,388.5C 811.829,376.429 818.662,367.763 829.5,362.5 Z"/></g>
<g><path style="opacity:0.969" fill="#000000" d="M 1308.5,333.5 C 1352.2,328.549 1375.53,347.882 1378.5,391.5C 1367.49,391.667 1356.49,391.5 1345.5,391C 1344.61,383.002 1342.11,375.502 1338,368.5C 1327.78,359.271 1316.61,358.105 1304.5,365C 1296.97,373.446 1294.47,383.279 1297,394.5C 1300.3,403.469 1306.13,410.303 1314.5,415C 1330.81,422.148 1346.14,430.814 1360.5,441C 1379.74,458.795 1386.57,480.629 1381,506.5C 1374.95,532.879 1358.45,547.713 1331.5,551C 1317.54,552.516 1303.87,551.183 1290.5,547C 1273.75,539.357 1263.25,526.524 1259,508.5C 1257.65,502.228 1256.82,495.895 1256.5,489.5C 1267.83,489.5 1279.17,489.5 1290.5,489.5C 1290.41,504.836 1297.08,516.002 1310.5,523C 1319.91,525.599 1328.91,524.599 1337.5,520C 1342.77,515.724 1345.94,510.224 1347,503.5C 1350.27,484.202 1343.43,469.702 1326.5,460C 1311.18,452.679 1296.52,444.346 1282.5,435C 1266.1,420.48 1259.6,402.314 1263,380.5C 1267.22,354.113 1282.39,338.446 1308.5,333.5 Z"/></g>
<g><path style="opacity:1" fill="#f7ae88" d="M 127.5,331.5 C 128.684,334.861 130.517,337.861 133,340.5C 158.763,371.02 184.763,401.353 211,431.5C 211.483,432.448 211.649,433.448 211.5,434.5C 209.761,437.243 207.427,439.243 204.5,440.5C 199.086,431.006 192.252,422.673 184,415.5C 162.266,389.941 140.766,364.274 119.5,338.5C 121.751,335.705 124.418,333.372 127.5,331.5 Z"/></g>
<g><path style="opacity:0.969" fill="#000000" d="M 615.5,336.5 C 626.833,336.5 638.167,336.5 649.5,336.5C 649.5,364.833 649.5,393.167 649.5,421.5C 668.167,421.5 686.833,421.5 705.5,421.5C 705.5,393.167 705.5,364.833 705.5,336.5C 716.833,336.5 728.167,336.5 739.5,336.5C 739.5,407.167 739.5,477.833 739.5,548.5C 728.167,548.5 716.833,548.5 705.5,548.5C 705.5,516.167 705.5,483.833 705.5,451.5C 686.833,451.5 668.167,451.5 649.5,451.5C 649.5,483.833 649.5,516.167 649.5,548.5C 638.167,548.5 626.833,548.5 615.5,548.5C 615.5,477.833 615.5,407.167 615.5,336.5 Z"/></g>
<g><path style="opacity:0.97" fill="#000000" d="M 933.5,336.5 C 950.167,336.5 966.833,336.5 983.5,336.5C 993.797,387.148 1003.63,437.815 1013,488.5C 1023.06,437.72 1033.56,387.053 1044.5,336.5C 1061.17,336.5 1077.83,336.5 1094.5,336.5C 1094.5,407.167 1094.5,477.833 1094.5,548.5C 1083.5,548.5 1072.5,548.5 1061.5,548.5C 1061.46,488.827 1061.63,429.16 1062,369.5C 1051,429.347 1039.16,489.013 1026.5,548.5C 1015.74,549.128 1005.24,548.462 995,546.5C 984.225,486.853 973.559,427.186 963,367.5C 964.245,427.812 964.745,488.145 964.5,548.5C 954.167,548.5 943.833,548.5 933.5,548.5C 933.5,477.833 933.5,407.167 933.5,336.5 Z"/></g>
<g><path style="opacity:0.976" fill="#000000" d="M 1131.5,336.5 C 1166.5,336.5 1201.5,336.5 1236.5,336.5C 1236.5,346.5 1236.5,356.5 1236.5,366.5C 1212.5,366.5 1188.5,366.5 1164.5,366.5C 1164.5,385.167 1164.5,403.833 1164.5,422.5C 1187.5,422.5 1210.5,422.5 1233.5,422.5C 1233.5,432.167 1233.5,441.833 1233.5,451.5C 1210.5,451.5 1187.5,451.5 1164.5,451.5C 1164.5,473.833 1164.5,496.167 1164.5,518.5C 1190.17,518.5 1215.83,518.5 1241.5,518.5C 1240.07,528.486 1238.74,538.486 1237.5,548.5C 1202.17,548.5 1166.83,548.5 1131.5,548.5C 1131.5,477.833 1131.5,407.167 1131.5,336.5 Z"/></g>
<g><path style="opacity:0.971" fill="#000000" d="M 1500.5,336.5 C 1515.17,336.5 1529.83,336.5 1544.5,336.5C 1561.17,407.168 1577.83,477.835 1594.5,548.5C 1582.59,548.821 1570.75,548.488 1559,547.5C 1555.08,528.574 1550.92,509.74 1546.5,491C 1529.84,490.5 1513.17,490.333 1496.5,490.5C 1493.12,509.576 1489.28,528.576 1485,547.5C 1473.91,548.487 1462.75,548.821 1451.5,548.5C 1467.52,477.763 1483.85,407.096 1500.5,336.5 Z M 1521.5,370.5 C 1527.81,400.384 1534.14,430.384 1540.5,460.5C 1528.17,460.5 1515.83,460.5 1503.5,460.5C 1509.82,430.56 1515.82,400.56 1521.5,370.5 Z"/></g>
<g><path style="opacity:0.971" fill="#000000" d="M 1589.5,336.5 C 1601.92,335.866 1614.08,336.533 1626,338.5C 1634.85,390.802 1642.85,443.135 1650,495.5C 1659.72,442.401 1669.89,389.401 1680.5,336.5C 1690.83,336.5 1701.17,336.5 1711.5,336.5C 1722.76,390.286 1732.92,444.286 1742,498.5C 1749.96,444.403 1758.46,390.403 1767.5,336.5C 1778.83,336.5 1790.17,336.5 1801.5,336.5C 1787.17,407.171 1772.83,477.837 1758.5,548.5C 1746.92,548.821 1735.42,548.488 1724,547.5C 1713.56,496.644 1703.9,445.644 1695,394.5C 1685.16,445.881 1674.99,497.215 1664.5,548.5C 1652.75,549.132 1641.25,548.465 1630,546.5C 1616.56,476.475 1603.06,406.475 1589.5,336.5 Z"/></g>
<g><path style="opacity:0.971" fill="#000000" d="M 1844.5,336.5 C 1859.41,336.176 1874.24,336.509 1889,337.5C 1905.61,407.757 1922.44,477.924 1939.5,548C 1927.5,548.5 1915.5,548.667 1903.5,548.5C 1899.37,529.194 1895.37,509.861 1891.5,490.5C 1874.82,490.167 1858.15,490.501 1841.5,491.5C 1837.24,510.45 1833.24,529.45 1829.5,548.5C 1818.17,548.5 1806.83,548.5 1795.5,548.5C 1811.83,477.832 1828.17,407.165 1844.5,336.5 Z M 1865.5,368.5 C 1872.07,399.001 1878.4,429.668 1884.5,460.5C 1872.15,460.832 1859.82,460.499 1847.5,459.5C 1854.78,429.418 1860.78,399.084 1865.5,368.5 Z"/></g>
<g><path style="opacity:0.967" fill="#000000" d="M 1957.5,336.5 C 1968.83,336.5 1980.17,336.5 1991.5,336.5C 1991.5,407.167 1991.5,477.833 1991.5,548.5C 1980.17,548.5 1968.83,548.5 1957.5,548.5C 1957.5,477.833 1957.5,407.167 1957.5,336.5 Z"/></g>
<g><path style="opacity:0.969" fill="#000000" d="M 2137.5,336.5 C 2137.5,346.5 2137.5,356.5 2137.5,366.5C 2122.17,366.5 2106.83,366.5 2091.5,366.5C 2091.5,427.167 2091.5,487.833 2091.5,548.5C 2080.17,548.5 2068.83,548.5 2057.5,548.5C 2057.5,487.833 2057.5,427.167 2057.5,366.5C 2042.5,366.5 2027.5,366.5 2012.5,366.5C 2012.5,356.5 2012.5,346.5 2012.5,336.5C 2054.17,336.5 2095.83,336.5 2137.5,336.5 Z"/></g>
<g><path style="opacity:1" fill="#ae4f27" d="M 347.5,336.5 C 350.833,339.167 353.833,342.167 356.5,345.5C 354.246,344.585 352.246,343.252 350.5,341.5C 349.075,340.078 348.075,338.411 347.5,336.5 Z"/></g>
<g><path style="opacity:1" fill="#2b0100" d="M 327.5,335.5 C 333.31,336.49 339.31,336.823 345.5,336.5C 346.167,336.5 346.833,336.5 347.5,336.5C 348.075,338.411 349.075,340.078 350.5,341.5C 340.652,341.827 330.986,341.494 321.5,340.5C 322.833,339.833 323.833,338.833 324.5,337.5C 325.5,336.833 326.5,336.167 327.5,335.5 Z"/></g>
<g><path style="opacity:1" fill="#82250f" d="M -0.5,327.5 C 43.3365,327.168 87.0032,327.501 130.5,328.5C 129.167,329.167 128.167,330.167 127.5,331.5C 124.418,333.372 121.751,335.705 119.5,338.5C 116.214,340.451 113.214,342.785 110.5,345.5C 109.833,345.833 109.167,346.167 108.5,346.5C 72.3372,345.502 36.0038,345.168 -0.5,345.5C -0.5,339.5 -0.5,333.5 -0.5,327.5 Z"/></g>
<g><path style="opacity:1" fill="#f7a67d" d="M 119.5,338.5 C 140.766,364.274 162.266,389.941 184,415.5C 192.252,422.673 199.086,431.006 204.5,440.5C 202.451,443.55 199.784,445.883 196.5,447.5C 167.435,413.774 138.768,379.774 110.5,345.5C 113.214,342.785 116.214,340.451 119.5,338.5 Z"/></g>
<g><path style="opacity:1" fill="#3b0100" d="M 321.5,340.5 C 330.986,341.494 340.652,341.827 350.5,341.5C 352.246,343.252 354.246,344.585 356.5,345.5C 356.414,346.496 356.748,347.329 357.5,348C 342.661,348.828 327.994,348.661 313.5,347.5C 313.5,347.167 313.5,346.833 313.5,346.5C 316.431,344.909 319.098,342.909 321.5,340.5 Z"/></g>
<g><path style="opacity:1" fill="#77200a" d="M -0.5,345.5 C 36.0038,345.168 72.3372,345.502 108.5,346.5C 107.833,347.5 107.167,348.5 106.5,349.5C 103.911,350.419 101.911,352.086 100.5,354.5C 97.9108,355.419 95.9108,357.086 94.5,359.5C 91.5178,361.474 88.5178,363.474 85.5,365.5C 57.0049,364.502 28.3382,364.169 -0.5,364.5C -0.5,358.167 -0.5,351.833 -0.5,345.5 Z"/></g>
<g><path style="opacity:1" fill="#f59e73" d="M 110.5,345.5 C 138.768,379.774 167.435,413.774 196.5,447.5C 195.089,449.914 193.089,451.581 190.5,452.5C 162.602,419.423 134.435,386.423 106,353.5C 105.421,352.072 105.588,350.738 106.5,349.5C 107.167,348.5 107.833,347.5 108.5,346.5C 109.167,346.167 109.833,345.833 110.5,345.5 Z"/></g>
<g><path style="opacity:1" fill="#f5996d" d="M 106.5,349.5 C 105.588,350.738 105.421,352.072 106,353.5C 134.435,386.423 162.602,419.423 190.5,452.5C 188.833,454.833 186.833,456.833 184.5,458.5C 158.346,425.83 131.18,393.83 103,362.5C 101.818,360.656 100.651,358.823 99.5,357C 99.7432,356.098 100.077,355.265 100.5,354.5C 101.911,352.086 103.911,350.419 106.5,349.5 Z"/></g>
<g><path style="opacity:1" fill="#480801" d="M 356.5,345.5 C 359.5,347.833 362.167,350.5 364.5,353.5C 364.414,354.496 364.748,355.329 365.5,356C 344.996,356.829 324.663,356.663 304.5,355.5C 305.5,354.167 306.5,352.833 307.5,351.5C 309.754,350.585 311.754,349.252 313.5,347.5C 327.994,348.661 342.661,348.828 357.5,348C 356.748,347.329 356.414,346.496 356.5,345.5 Z"/></g>
<g><path style="opacity:1" fill="#f49467" d="M 100.5,354.5 C 100.077,355.265 99.7432,356.098 99.5,357C 100.651,358.823 101.818,360.656 103,362.5C 131.18,393.83 158.346,425.83 184.5,458.5C 182.5,460.167 180.5,461.833 178.5,463.5C 150.442,429.265 121.775,395.432 92.5,362C 93.3805,361.292 94.0472,360.458 94.5,359.5C 95.9108,357.086 97.9108,355.419 100.5,354.5 Z"/></g>
<g><path style="opacity:0.063" fill="#d1683b" d="M 369.5,358.5 C 374.774,362.105 379.441,366.438 383.5,371.5C 380.233,369.573 377.233,367.239 374.5,364.5C 372.833,362.5 371.167,360.5 369.5,358.5 Z"/></g>
<g><path style="opacity:1" fill="#510b00" d="M 364.5,353.5 C 366.5,354.833 368.167,356.5 369.5,358.5C 371.167,360.5 372.833,362.5 374.5,364.5C 348.165,364.667 321.831,364.5 295.5,364C 296.056,363.617 296.389,363.117 296.5,362.5C 296.5,362.167 296.5,361.833 296.5,361.5C 298.167,360.167 299.833,358.833 301.5,357.5C 302.5,356.833 303.5,356.167 304.5,355.5C 324.663,356.663 344.996,356.829 365.5,356C 364.748,355.329 364.414,354.496 364.5,353.5 Z"/></g>
<g><path style="opacity:1" fill="#f38b5c" d="M 94.5,359.5 C 94.0472,360.458 93.3805,361.292 92.5,362C 121.775,395.432 150.442,429.265 178.5,463.5C 174.792,467.21 170.792,470.543 166.5,473.5C 138.442,439.265 109.775,405.432 80.5,372C 81.3805,371.292 82.0472,370.458 82.5,369.5C 83.5,368.167 84.5,366.833 85.5,365.5C 88.5178,363.474 91.5178,361.474 94.5,359.5 Z"/></g>
<g><path style="opacity:1" fill="#591000" d="M 296.5,362.5 C 296.389,363.117 296.056,363.617 295.5,364C 321.831,364.5 348.165,364.667 374.5,364.5C 377.233,367.239 380.233,369.573 383.5,371.5C 367.347,372.833 350.847,373.5 334,373.5C 317.33,373.5 300.83,373.167 284.5,372.5C 284.833,371.833 285.167,371.167 285.5,370.5C 288.109,369.557 290.109,367.89 291.5,365.5C 292.922,364.075 294.589,363.075 296.5,362.5 Z"/></g>
<g><path style="opacity:1" fill="#f28655" d="M 82.5,369.5 C 82.0472,370.458 81.3805,371.292 80.5,372C 109.775,405.432 138.442,439.265 166.5,473.5C 163.859,475.804 161.192,478.138 158.5,480.5C 157.928,478.745 157.094,477.078 156,475.5C 129.9,445.744 104.234,415.744 79,385.5C 76.8665,383.197 75.3665,380.531 74.5,377.5C 75.1925,376.482 75.8592,375.482 76.5,374.5C 77.9108,372.086 79.9108,370.419 82.5,369.5 Z"/></g>
<g><path style="opacity:1" fill="#691802" d="M -0.5,364.5 C 28.3382,364.169 57.0049,364.502 85.5,365.5C 84.5,366.833 83.5,368.167 82.5,369.5C 79.9108,370.419 77.9108,372.086 76.5,374.5C 73.1847,376.808 69.8514,379.141 66.5,381.5C 44.3396,380.503 22.0062,380.169 -0.5,380.5C -0.5,375.167 -0.5,369.833 -0.5,364.5 Z"/></g>
<g><path style="opacity:1" fill="#621601" d="M 383.5,371.5 C 385.833,373.167 387.833,375.167 389.5,377.5C 389.414,378.496 389.748,379.329 390.5,380C 352.331,380.831 314.331,380.664 276.5,379.5C 277.861,377.473 279.527,375.806 281.5,374.5C 282.5,373.833 283.5,373.167 284.5,372.5C 300.83,373.167 317.33,373.5 334,373.5C 350.847,373.5 367.347,372.833 383.5,371.5 Z"/></g>
<g><path style="opacity:0.998" fill="#f1804e" d="M 76.5,374.5 C 75.8592,375.482 75.1925,376.482 74.5,377.5C 75.3665,380.531 76.8665,383.197 79,385.5C 104.234,415.744 129.9,445.744 156,475.5C 157.094,477.078 157.928,478.745 158.5,480.5C 154.413,484.922 149.746,488.589 144.5,491.5C 144.953,490.542 145.619,489.708 146.5,489C 144.667,486.5 142.833,484 141,481.5C 114.175,451.027 87.8421,420.361 62,389.5C 61.3333,388.833 61.3333,388.167 62,387.5C 63.3756,386.295 64.5423,384.962 65.5,383.5C 65.8333,382.833 66.1667,382.167 66.5,381.5C 69.8514,379.141 73.1847,376.808 76.5,374.5 Z"/></g>
<g><path style="opacity:1" fill="#5f1400" d="M -0.5,380.5 C 22.0062,380.169 44.3396,380.503 66.5,381.5C 66.1667,382.167 65.8333,382.833 65.5,383.5C 60.3519,386.913 55.3519,390.58 50.5,394.5C 33.6749,393.503 16.6749,393.17 -0.5,393.5C -0.5,389.167 -0.5,384.833 -0.5,380.5 Z"/></g>
<g><path style="opacity:1" fill="#6c1a04" d="M 389.5,377.5 C 394.5,381.833 399.167,386.5 403.5,391.5C 403.414,392.496 403.748,393.329 404.5,394C 360.835,394.5 317.168,394.667 273.5,394.5C 273.5,390.5 273.5,386.5 273.5,382.5C 274.167,381.167 275.167,380.167 276.5,379.5C 314.331,380.664 352.331,380.831 390.5,380C 389.748,379.329 389.414,378.496 389.5,377.5 Z"/></g>
<g><path style="opacity:0.998" fill="#f07b47" d="M 65.5,383.5 C 64.5423,384.962 63.3756,386.295 62,387.5C 61.3333,388.167 61.3333,388.833 62,389.5C 87.8421,420.361 114.175,451.027 141,481.5C 142.833,484 144.667,486.5 146.5,489C 145.619,489.708 144.953,490.542 144.5,491.5C 142.873,493.63 141.04,495.63 139,497.5C 138.5,573.166 138.333,648.833 138.5,724.5C 92.1667,724.5 45.8333,724.5 -0.5,724.5C -0.5,628.5 -0.5,532.5 -0.5,436.5C 5.23956,432.635 10.5729,428.302 15.5,423.5C 21.2396,419.635 26.5729,415.302 31.5,410.5C 38.0586,405.394 44.392,400.061 50.5,394.5C 55.3519,390.58 60.3519,386.913 65.5,383.5 Z"/></g>
<g><path style="opacity:1" fill="#4f0a00" d="M -0.5,393.5 C 16.6749,393.17 33.6749,393.503 50.5,394.5C 44.392,400.061 38.0586,405.394 31.5,410.5C 21.0131,409.506 10.3464,409.172 -0.5,409.5C -0.5,404.167 -0.5,398.833 -0.5,393.5 Z"/></g>
<g><path style="opacity:1" fill="#772009" d="M 403.5,391.5 C 406.5,393.833 409.167,396.5 411.5,399.5C 411.5,403.5 411.5,407.5 411.5,411.5C 365.5,411.5 319.5,411.5 273.5,411.5C 273.5,405.833 273.5,400.167 273.5,394.5C 317.168,394.667 360.835,394.5 404.5,394C 403.748,393.329 403.414,392.496 403.5,391.5 Z"/></g>
<g><path style="opacity:1" fill="#3e0300" d="M -0.5,409.5 C 10.3464,409.172 21.0131,409.506 31.5,410.5C 26.5729,415.302 21.2396,419.635 15.5,423.5C 10.3595,422.512 5.02621,422.179 -0.5,422.5C -0.5,418.167 -0.5,413.833 -0.5,409.5 Z"/></g>
<g><path style="opacity:1" fill="#842610" d="M 273.5,411.5 C 319.5,411.5 365.5,411.5 411.5,411.5C 411.5,417.167 411.5,422.833 411.5,428.5C 365.5,428.5 319.5,428.5 273.5,428.5C 273.5,422.833 273.5,417.167 273.5,411.5 Z"/></g>
<g><path style="opacity:1" fill="#270200" d="M -0.5,422.5 C 5.02621,422.179 10.3595,422.512 15.5,423.5C 10.5729,428.302 5.23956,432.635 -0.5,436.5C -0.5,431.833 -0.5,427.167 -0.5,422.5 Z"/></g>
<g><path style="opacity:1" fill="#902c16" d="M 411.5,399.5 C 412.496,412.656 412.829,425.99 412.5,439.5C 411.532,441.607 411.198,443.941 411.5,446.5C 365.5,446.5 319.5,446.5 273.5,446.5C 273.5,440.5 273.5,434.5 273.5,428.5C 319.5,428.5 365.5,428.5 411.5,428.5C 411.5,422.833 411.5,417.167 411.5,411.5C 411.5,407.5 411.5,403.5 411.5,399.5 Z"/></g>
<g><path style="opacity:0.939" fill="#cc5431" d="M 272.5,382.5 C 272.833,382.5 273.167,382.5 273.5,382.5C 273.5,386.5 273.5,390.5 273.5,394.5C 273.5,400.167 273.5,405.833 273.5,411.5C 273.5,417.167 273.5,422.833 273.5,428.5C 273.5,434.5 273.5,440.5 273.5,446.5C 273.5,451.167 273.5,455.833 273.5,460.5C 273.5,464.833 273.5,469.167 273.5,473.5C 273.5,478.5 273.5,483.5 273.5,488.5C 273.5,494.167 273.5,499.833 273.5,505.5C 273.5,515.5 273.5,525.5 273.5,535.5C 273.5,548.833 273.5,562.167 273.5,575.5C 273.5,600.833 273.5,626.167 273.5,651.5C 273.5,675.5 273.5,699.5 273.5,723.5C 319.5,723.5 365.5,723.5 411.5,723.5C 411.5,699.5 411.5,675.5 411.5,651.5C 411.5,626.167 411.5,600.833 411.5,575.5C 411.5,562.167 411.5,548.833 411.5,535.5C 411.5,525.5 411.5,515.5 411.5,505.5C 411.5,499.833 411.5,494.167 411.5,488.5C 411.5,483.5 411.5,478.5 411.5,473.5C 411.5,469.167 411.5,464.833 411.5,460.5C 411.5,455.833 411.5,451.167 411.5,446.5C 411.198,443.941 411.532,441.607 412.5,439.5C 412.5,534.5 412.5,629.5 412.5,724.5C 365.833,724.5 319.167,724.5 272.5,724.5C 272.5,610.833 272.5,497.167 272.5,383.5C 272.5,383.167 272.5,382.833 272.5,382.5 Z"/></g>
<g><path style="opacity:1" fill="#be3d26" d="M 273.5,575.5 C 319.5,575.5 365.5,575.5 411.5,575.5C 411.5,600.833 411.5,626.167 411.5,651.5C 365.5,651.5 319.5,651.5 273.5,651.5C 273.5,626.167 273.5,600.833 273.5,575.5 Z"/></g>
<g><path style="opacity:1" fill="#b83b24" d="M 273.5,535.5 C 319.5,535.5 365.5,535.5 411.5,535.5C 411.5,548.833 411.5,562.167 411.5,575.5C 365.5,575.5 319.5,575.5 273.5,575.5C 273.5,562.167 273.5,548.833 273.5,535.5 Z"/></g>
<g><path style="opacity:1" fill="#b23922" d="M 273.5,505.5 C 319.5,505.5 365.5,505.5 411.5,505.5C 411.5,515.5 411.5,525.5 411.5,535.5C 365.5,535.5 319.5,535.5 273.5,535.5C 273.5,525.5 273.5,515.5 273.5,505.5 Z"/></g>
<g><path style="opacity:1" fill="#ab3720" d="M 273.5,488.5 C 319.5,488.5 365.5,488.5 411.5,488.5C 411.5,494.167 411.5,499.833 411.5,505.5C 365.5,505.5 319.5,505.5 273.5,505.5C 273.5,499.833 273.5,494.167 273.5,488.5 Z"/></g>
<g><path style="opacity:1" fill="#a5341e" d="M 273.5,473.5 C 319.5,473.5 365.5,473.5 411.5,473.5C 411.5,478.5 411.5,483.5 411.5,488.5C 365.5,488.5 319.5,488.5 273.5,488.5C 273.5,483.5 273.5,478.5 273.5,473.5 Z"/></g>
<g><path style="opacity:1" fill="#9f321c" d="M 273.5,460.5 C 319.5,460.5 365.5,460.5 411.5,460.5C 411.5,464.833 411.5,469.167 411.5,473.5C 365.5,473.5 319.5,473.5 273.5,473.5C 273.5,469.167 273.5,464.833 273.5,460.5 Z"/></g>
<g><path style="opacity:1" fill="#982f19" d="M 273.5,446.5 C 319.5,446.5 365.5,446.5 411.5,446.5C 411.5,451.167 411.5,455.833 411.5,460.5C 365.5,460.5 319.5,460.5 273.5,460.5C 273.5,455.833 273.5,451.167 273.5,446.5 Z"/></g>
<g><path style="opacity:0.916" fill="#000000" d="M 1184.5,631.5 C 1193.05,630.977 1201.05,632.81 1208.5,637C 1214.91,641.439 1214.58,645.606 1207.5,649.5C 1194.46,638.862 1181.96,639.529 1170,651.5C 1163.04,663.853 1161.71,676.853 1166,690.5C 1172.58,704.37 1183.41,709.537 1198.5,706C 1200.59,705.208 1202.42,704.041 1204,702.5C 1204.5,695.842 1204.67,689.175 1204.5,682.5C 1198.83,682.5 1193.17,682.5 1187.5,682.5C 1187.5,679.167 1187.5,675.833 1187.5,672.5C 1196.5,672.5 1205.5,672.5 1214.5,672.5C 1214.67,684.505 1214.5,696.505 1214,708.5C 1203.18,716.999 1191.01,719.499 1177.5,716C 1165.26,712.095 1157.43,703.929 1154,691.5C 1149.46,675.264 1151.46,659.931 1160,645.5C 1166.55,637.816 1174.71,633.149 1184.5,631.5 Z"/></g>
<g><path style="opacity:0.915" fill="#000000" d="M 1657.5,631.5 C 1679.65,631.15 1692.82,641.816 1697,663.5C 1699.77,679.688 1696.43,694.355 1687,707.5C 1672.67,719.402 1657.51,720.569 1641.5,711C 1631.15,701.119 1626.15,688.952 1626.5,674.5C 1626.18,660.616 1630.85,648.783 1640.5,639C 1645.69,635.223 1651.35,632.723 1657.5,631.5 Z M 1660.5,641.5 C 1672.65,642.479 1680.48,648.812 1684,660.5C 1687.43,673.284 1686.1,685.618 1680,697.5C 1669.36,709.876 1658.03,710.543 1646,699.5C 1636.87,684.228 1636.2,668.562 1644,652.5C 1647.99,646.432 1653.49,642.765 1660.5,641.5 Z"/></g>
<g><path style="opacity:0.917" fill="#000000" d="M 1829.5,631.5 C 1851.45,630.719 1864.62,641.052 1869,662.5C 1871.52,676.507 1869.52,689.84 1863,702.5C 1854.62,714.522 1843.12,719.355 1828.5,717C 1817.26,714.807 1809.09,708.64 1804,698.5C 1797.71,681.675 1798.04,665.008 1805,648.5C 1810.6,639.058 1818.77,633.392 1829.5,631.5 Z M 1833.5,641.5 C 1846.49,642.652 1854.32,649.652 1857,662.5C 1860.08,675.705 1858.08,688.038 1851,699.5C 1838.91,710.591 1827.57,709.924 1817,697.5C 1808.28,680.748 1808.94,664.415 1819,648.5C 1823.23,644.712 1828.07,642.379 1833.5,641.5 Z"/></g>
<g><path style="opacity:0.93" fill="#000000" d="M 612.5,633.5 C 632.833,633.5 653.167,633.5 673.5,633.5C 673.5,636.833 673.5,640.167 673.5,643.5C 665.167,643.5 656.833,643.5 648.5,643.5C 648.5,667.5 648.5,691.5 648.5,715.5C 644.833,715.5 641.167,715.5 637.5,715.5C 637.5,691.5 637.5,667.5 637.5,643.5C 629.167,643.5 620.833,643.5 612.5,643.5C 612.5,640.167 612.5,636.833 612.5,633.5 Z"/></g>
<g><path style="opacity:0.929" fill="#000000" d="M 719.5,633.5 C 723.167,633.5 726.833,633.5 730.5,633.5C 730.5,644.833 730.5,656.167 730.5,667.5C 742.833,667.5 755.167,667.5 767.5,667.5C 767.5,656.167 767.5,644.833 767.5,633.5C 771.5,633.5 775.5,633.5 779.5,633.5C 779.5,660.833 779.5,688.167 779.5,715.5C 775.5,715.5 771.5,715.5 767.5,715.5C 767.5,702.833 767.5,690.167 767.5,677.5C 755.167,677.5 742.833,677.5 730.5,677.5C 730.5,690.167 730.5,702.833 730.5,715.5C 726.833,715.5 723.167,715.5 719.5,715.5C 719.5,688.167 719.5,660.833 719.5,633.5 Z"/></g>
<g><path style="opacity:0.913" fill="#000000" d="M 832.5,633.5 C 848.833,633.5 865.167,633.5 881.5,633.5C 881.5,636.833 881.5,640.167 881.5,643.5C 869.167,643.5 856.833,643.5 844.5,643.5C 844.5,651.5 844.5,659.5 844.5,667.5C 854.833,667.5 865.167,667.5 875.5,667.5C 875.5,670.833 875.5,674.167 875.5,677.5C 865.167,677.5 854.833,677.5 844.5,677.5C 844.5,687.167 844.5,696.833 844.5,706.5C 857.167,706.5 869.833,706.5 882.5,706.5C 882.5,709.5 882.5,712.5 882.5,715.5C 865.833,715.5 849.167,715.5 832.5,715.5C 832.5,688.167 832.5,660.833 832.5,633.5 Z"/></g>
<g><path style="opacity:0.938" fill="#000000" d="M 988.5,633.5 C 1001.88,633.097 1015.22,633.597 1028.5,635C 1040.2,639.89 1045.03,648.723 1043,661.5C 1040.7,671.131 1034.87,677.631 1025.5,681C 1032.29,692.084 1038.96,703.251 1045.5,714.5C 1041.2,715.661 1036.87,715.828 1032.5,715C 1026.21,704.248 1020.04,693.415 1014,682.5C 1009.26,681.531 1004.43,681.197 999.5,681.5C 999.5,692.833 999.5,704.167 999.5,715.5C 995.833,715.5 992.167,715.5 988.5,715.5C 988.5,688.167 988.5,660.833 988.5,633.5 Z M 999.5,642.5 C 1008.32,641.971 1016.99,642.804 1025.5,645C 1029.87,647.743 1031.87,651.743 1031.5,657C 1031.87,663.267 1029.2,667.601 1023.5,670C 1015.59,671.401 1007.59,671.901 999.5,671.5C 999.5,661.833 999.5,652.167 999.5,642.5 Z"/></g>
<g><path style="opacity:0.975" fill="#000000" d="M 1091.5,633.5 C 1095.17,633.5 1098.83,633.5 1102.5,633.5C 1102.5,660.833 1102.5,688.167 1102.5,715.5C 1098.83,715.5 1095.17,715.5 1091.5,715.5C 1091.5,688.167 1091.5,660.833 1091.5,633.5 Z"/></g>
<g><path style="opacity:0.929" fill="#000000" d="M 1265.5,633.5 C 1269.5,633.5 1273.5,633.5 1277.5,633.5C 1277.5,644.833 1277.5,656.167 1277.5,667.5C 1289.83,667.5 1302.17,667.5 1314.5,667.5C 1314.5,656.167 1314.5,644.833 1314.5,633.5C 1318.17,633.5 1321.83,633.5 1325.5,633.5C 1325.5,660.833 1325.5,688.167 1325.5,715.5C 1321.83,715.5 1318.17,715.5 1314.5,715.5C 1314.5,702.833 1314.5,690.167 1314.5,677.5C 1302.17,677.5 1289.83,677.5 1277.5,677.5C 1277.5,690.167 1277.5,702.833 1277.5,715.5C 1273.5,715.5 1269.5,715.5 1265.5,715.5C 1265.5,688.167 1265.5,660.833 1265.5,633.5 Z"/></g>
<g><path style="opacity:0.945" fill="#000000" d="M 1371.5,633.5 C 1391.83,633.5 1412.17,633.5 1432.5,633.5C 1432.5,636.833 1432.5,640.167 1432.5,643.5C 1424.17,643.5 1415.83,643.5 1407.5,643.5C 1407.5,667.5 1407.5,691.5 1407.5,715.5C 1403.83,715.5 1400.17,715.5 1396.5,715.5C 1396.5,691.5 1396.5,667.5 1396.5,643.5C 1388.17,643.5 1379.83,643.5 1371.5,643.5C 1371.5,640.167 1371.5,636.833 1371.5,633.5 Z"/></g>
<g><path style="opacity:0.93" fill="#000000" d="M 1527.5,633.5 C 1547.83,633.5 1568.17,633.5 1588.5,633.5C 1588.5,636.833 1588.5,640.167 1588.5,643.5C 1580.17,643.5 1571.83,643.5 1563.5,643.5C 1563.5,667.5 1563.5,691.5 1563.5,715.5C 1559.83,715.5 1556.17,715.5 1552.5,715.5C 1552.5,691.5 1552.5,667.5 1552.5,643.5C 1544.17,643.5 1535.83,643.5 1527.5,643.5C 1527.5,640.167 1527.5,636.833 1527.5,633.5 Z"/></g>
<g><path style="opacity:0.917" fill="#000000" d="M 1909.5,634.5 C 1911.3,633.838 1913.3,633.505 1915.5,633.5C 1917.96,633.59 1920.13,634.257 1922,635.5C 1926.21,657.534 1930.54,679.534 1935,701.5C 1939.7,679.348 1945.04,657.348 1951,635.5C 1954.49,633.623 1958.33,632.956 1962.5,633.5C 1968.15,656.443 1973.65,679.443 1979,702.5C 1983.23,679.498 1987.4,656.498 1991.5,633.5C 1995.17,633.5 1998.83,633.5 2002.5,633.5C 1997.3,660.856 1991.96,688.19 1986.5,715.5C 1981.35,716.074 1976.52,715.407 1972,713.5C 1966.65,692.767 1961.32,672.101 1956,651.5C 1951.16,672.536 1946.16,693.536 1941,714.5C 1936.33,715.833 1931.67,715.833 1927,714.5C 1921.33,687.663 1915.5,660.996 1909.5,634.5 Z"/></g>
<g><path style="opacity:0.92" fill="#000000" d="M 2048.5,633.5 C 2052.77,633.203 2056.93,633.536 2061,634.5C 2073.51,655.51 2085.51,676.843 2097,698.5C 2096.67,676.848 2096.5,655.181 2096.5,633.5C 2100.17,633.5 2103.83,633.5 2107.5,633.5C 2107.5,660.833 2107.5,688.167 2107.5,715.5C 2103.23,715.797 2099.07,715.464 2095,714.5C 2082.49,693.49 2070.49,672.157 2059,650.5C 2059.36,672.15 2059.53,693.817 2059.5,715.5C 2055.83,715.5 2052.17,715.5 2048.5,715.5C 2048.5,688.167 2048.5,660.833 2048.5,633.5 Z"/></g>
<g><path style="opacity:1" fill="#c03f26" d="M 273.5,651.5 C 319.5,651.5 365.5,651.5 411.5,651.5C 411.5,675.5 411.5,699.5 411.5,723.5C 365.5,723.5 319.5,723.5 273.5,723.5C 273.5,699.5 273.5,675.5 273.5,651.5 Z"/></g>
</svg>
